<?xml version="1.0" encoding="UTF-8"?>
<svg xmlns="http://www.w3.org/2000/svg" xmlns:xlink="http://www.w3.org/1999/xlink" width="2182.81" height="3303.03" viewBox="0 0 2182.81 3303.03">
<defs>
<clipPath id="clip-0">

</clipPath>
<clipPath id="clip-1">
<path clip-rule="evenodd" d="M 716.925781 2692.359375 C 731.148438 2692.359375 742.324219 2681.191406 742.324219 2666.960938 L 742.324219 1841.828125 C 742.324219 1827.941406 730.847656 1816.460938 716.925781 1816.460938 C 703.019531 1816.460938 691.539062 1827.941406 691.539062 1841.828125 L 691.539062 2666.960938 C 691.539062 2680.878906 703.019531 2692.359375 716.925781 2692.359375 Z M 1091.398438 2692.359375 C 1105.640625 2692.359375 1116.800781 2681.191406 1116.800781 2666.960938 L 1116.800781 1841.828125 C 1116.800781 1827.941406 1105.320312 1816.460938 1091.398438 1816.460938 C 1077.5 1816.460938 1066.011719 1827.941406 1066.011719 1841.828125 L 1066.011719 2666.960938 C 1066.011719 2680.878906 1077.5 2692.359375 1091.398438 2692.359375 Z M 1465.871094 2692.359375 C 1480.421875 2692.359375 1491.269531 2681.511719 1491.269531 2666.960938 L 1491.269531 1841.828125 C 1491.269531 1827.941406 1479.789062 1816.460938 1465.871094 1816.460938 C 1451.96875 1816.460938 1440.46875 1827.941406 1440.46875 1841.828125 L 1440.46875 2666.960938 C 1440.46875 2680.878906 1451.96875 2692.359375 1465.871094 2692.359375 Z M 322.210938 2997.480469 C 320.921875 2987.808594 319.992188 2978.070312 319.425781 2968.25 L 218.882812 1206.421875 L 1965.148438 1206.421875 L 1897.300781 2968.25 C 1896.941406 2978.101562 1896.148438 2987.839844 1895.019531 2997.449219 Z M 1846.109375 1511.960938 C 1860.03125 1511.960938 1871.488281 1500.488281 1871.488281 1486.578125 C 1871.488281 1472.660156 1860.03125 1461.179688 1846.109375 1461.179688 L 370.628906 1461.179688 C 356.722656 1461.179688 345.230469 1472.660156 345.230469 1486.578125 C 345.230469 1500.488281 356.722656 1511.960938 370.628906 1511.960938 Z M 2131.589844 1154.78125 L 51.203125 1154.78125 C 23.046875 1154.78125 0 1131.730469 0 1103.578125 L 0 1026.121094 C 0 837.269531 153.625 684.289062 341.832031 684.289062 L 1840.988281 684.289062 C 2029.808594 684.289062 2182.808594 837.921875 2182.808594 1026.121094 L 2182.808594 1103.578125 C 2182.808594 1131.730469 2159.769531 1154.78125 2131.589844 1154.78125 Z M 1371.160156 262.878906 L 1371.128906 102.421875 L 811.035156 102.421875 L 811.035156 263.109375 C 899.589844 231.859375 994.210938 215.730469 1091.398438 215.730469 C 1188.378906 215.730469 1282.769531 231.769531 1371.160156 262.878906 Z M 708.613281 307.449219 L 708.613281 51.21875 C 708.613281 23.050781 731.648438 0 759.816406 0 L 1422.351562 0 C 1450.5 0 1473.570312 23.050781 1473.570312 51.21875 L 1473.570312 307.121094 C 1501.089844 321.359375 1527.800781 337.210938 1553.570312 354.628906 C 1661.761719 427.601562 1745.121094 522.550781 1798.808594 632.648438 L 383.75 632.648438 C 437.277344 522.550781 521.066406 427.601562 629.238281 354.628906 C 654.808594 337.339844 681.324219 321.609375 708.613281 307.449219 Z M 1559.980469 3303.03125 L 656.765625 3303.03125 C 567.792969 3303.03125 483.925781 3267.800781 421.203125 3203.160156 C 378.996094 3160.058594 348.816406 3106.800781 332.585938 3048.25 L 1885.269531 3048.25 C 1845.71875 3196.019531 1714.941406 3303.03125 1559.980469 3303.03125 "/>
</clipPath>
<linearGradient id="linear-pattern-0" gradientUnits="userSpaceOnUse" x1="0.109741" y1="0" x2="0.890261" y2="0" gradientTransform="matrix(2796.61, 0, 0, 2796.61, -306.903, 1651.51)">
<stop offset="0" stop-color="rgb(10.124207%, 34.542847%, 34.892273%)" stop-opacity="1"/>
<stop offset="0.015625" stop-color="rgb(10.054016%, 34.391785%, 34.738159%)" stop-opacity="1"/>
<stop offset="0.03125" stop-color="rgb(9.915161%, 34.091187%, 34.432983%)" stop-opacity="1"/>
<stop offset="0.046875" stop-color="rgb(9.776306%, 33.789062%, 34.126282%)" stop-opacity="1"/>
<stop offset="0.0625" stop-color="rgb(9.637451%, 33.488464%, 33.81958%)" stop-opacity="1"/>
<stop offset="0.078125" stop-color="rgb(9.498596%, 33.18634%, 33.514404%)" stop-opacity="1"/>
<stop offset="0.09375" stop-color="rgb(9.359741%, 32.885742%, 33.207703%)" stop-opacity="1"/>
<stop offset="0.109375" stop-color="rgb(9.220886%, 32.583618%, 32.902527%)" stop-opacity="1"/>
<stop offset="0.125" stop-color="rgb(9.083557%, 32.28302%, 32.595825%)" stop-opacity="1"/>
<stop offset="0.140625" stop-color="rgb(8.944702%, 31.980896%, 32.289124%)" stop-opacity="1"/>
<stop offset="0.15625" stop-color="rgb(8.805847%, 31.680298%, 31.983948%)" stop-opacity="1"/>
<stop offset="0.171875" stop-color="rgb(8.666992%, 31.378174%, 31.677246%)" stop-opacity="1"/>
<stop offset="0.1875" stop-color="rgb(8.528137%, 31.077576%, 31.37207%)" stop-opacity="1"/>
<stop offset="0.203125" stop-color="rgb(8.389282%, 30.775452%, 31.065369%)" stop-opacity="1"/>
<stop offset="0.21875" stop-color="rgb(8.250427%, 30.474854%, 30.758667%)" stop-opacity="1"/>
<stop offset="0.234375" stop-color="rgb(8.111572%, 30.174255%, 30.453491%)" stop-opacity="1"/>
<stop offset="0.25" stop-color="rgb(7.972717%, 29.872131%, 30.14679%)" stop-opacity="1"/>
<stop offset="0.265625" stop-color="rgb(7.833862%, 29.571533%, 29.841614%)" stop-opacity="1"/>
<stop offset="0.28125" stop-color="rgb(7.696533%, 29.269409%, 29.534912%)" stop-opacity="1"/>
<stop offset="0.296875" stop-color="rgb(7.557678%, 28.968811%, 29.229736%)" stop-opacity="1"/>
<stop offset="0.3125" stop-color="rgb(7.418823%, 28.666687%, 28.923035%)" stop-opacity="1"/>
<stop offset="0.328125" stop-color="rgb(7.279968%, 28.366089%, 28.616333%)" stop-opacity="1"/>
<stop offset="0.34375" stop-color="rgb(7.141113%, 28.063965%, 28.311157%)" stop-opacity="1"/>
<stop offset="0.359375" stop-color="rgb(7.002258%, 27.763367%, 28.004456%)" stop-opacity="1"/>
<stop offset="0.375" stop-color="rgb(6.863403%, 27.461243%, 27.69928%)" stop-opacity="1"/>
<stop offset="0.390625" stop-color="rgb(6.724548%, 27.160645%, 27.392578%)" stop-opacity="1"/>
<stop offset="0.40625" stop-color="rgb(6.585693%, 26.858521%, 27.085876%)" stop-opacity="1"/>
<stop offset="0.421875" stop-color="rgb(6.448364%, 26.557922%, 26.780701%)" stop-opacity="1"/>
<stop offset="0.4375" stop-color="rgb(6.309509%, 26.257324%, 26.473999%)" stop-opacity="1"/>
<stop offset="0.453125" stop-color="rgb(6.170654%, 25.9552%, 26.168823%)" stop-opacity="1"/>
<stop offset="0.46875" stop-color="rgb(6.031799%, 25.654602%, 25.862122%)" stop-opacity="1"/>
<stop offset="0.484375" stop-color="rgb(5.892944%, 25.352478%, 25.55542%)" stop-opacity="1"/>
<stop offset="0.5" stop-color="rgb(5.754089%, 25.05188%, 25.250244%)" stop-opacity="1"/>
<stop offset="0.515625" stop-color="rgb(5.615234%, 24.749756%, 24.943542%)" stop-opacity="1"/>
<stop offset="0.53125" stop-color="rgb(5.476379%, 24.449158%, 24.638367%)" stop-opacity="1"/>
<stop offset="0.546875" stop-color="rgb(5.337524%, 24.147034%, 24.331665%)" stop-opacity="1"/>
<stop offset="0.5625" stop-color="rgb(5.198669%, 23.846436%, 24.024963%)" stop-opacity="1"/>
<stop offset="0.578125" stop-color="rgb(5.06134%, 23.544312%, 23.719788%)" stop-opacity="1"/>
<stop offset="0.59375" stop-color="rgb(4.922485%, 23.243713%, 23.413086%)" stop-opacity="1"/>
<stop offset="0.609375" stop-color="rgb(4.78363%, 22.941589%, 23.10791%)" stop-opacity="1"/>
<stop offset="0.625" stop-color="rgb(4.644775%, 22.640991%, 22.801208%)" stop-opacity="1"/>
<stop offset="0.640625" stop-color="rgb(4.50592%, 22.340393%, 22.494507%)" stop-opacity="1"/>
<stop offset="0.65625" stop-color="rgb(4.367065%, 22.038269%, 22.189331%)" stop-opacity="1"/>
<stop offset="0.671875" stop-color="rgb(4.22821%, 21.737671%, 21.882629%)" stop-opacity="1"/>
<stop offset="0.6875" stop-color="rgb(4.089355%, 21.435547%, 21.577454%)" stop-opacity="1"/>
<stop offset="0.703125" stop-color="rgb(3.9505%, 21.134949%, 21.270752%)" stop-opacity="1"/>
<stop offset="0.71875" stop-color="rgb(3.813171%, 20.832825%, 20.96405%)" stop-opacity="1"/>
<stop offset="0.734375" stop-color="rgb(3.674316%, 20.532227%, 20.658875%)" stop-opacity="1"/>
<stop offset="0.75" stop-color="rgb(3.535461%, 20.230103%, 20.352173%)" stop-opacity="1"/>
<stop offset="0.765625" stop-color="rgb(3.396606%, 19.929504%, 20.046997%)" stop-opacity="1"/>
<stop offset="0.78125" stop-color="rgb(3.257751%, 19.62738%, 19.740295%)" stop-opacity="1"/>
<stop offset="0.796875" stop-color="rgb(3.118896%, 19.326782%, 19.433594%)" stop-opacity="1"/>
<stop offset="0.8125" stop-color="rgb(2.980042%, 19.024658%, 19.128418%)" stop-opacity="1"/>
<stop offset="0.828125" stop-color="rgb(2.841187%, 18.72406%, 18.821716%)" stop-opacity="1"/>
<stop offset="0.84375" stop-color="rgb(2.702332%, 18.423462%, 18.516541%)" stop-opacity="1"/>
<stop offset="0.859375" stop-color="rgb(2.563477%, 18.121338%, 18.209839%)" stop-opacity="1"/>
<stop offset="0.875" stop-color="rgb(2.426147%, 17.82074%, 17.903137%)" stop-opacity="1"/>
<stop offset="0.890625" stop-color="rgb(2.287292%, 17.518616%, 17.597961%)" stop-opacity="1"/>
<stop offset="0.90625" stop-color="rgb(2.148438%, 17.218018%, 17.29126%)" stop-opacity="1"/>
<stop offset="0.921875" stop-color="rgb(2.009583%, 16.915894%, 16.986084%)" stop-opacity="1"/>
<stop offset="0.9375" stop-color="rgb(1.870728%, 16.615295%, 16.679382%)" stop-opacity="1"/>
<stop offset="0.953125" stop-color="rgb(1.731873%, 16.313171%, 16.372681%)" stop-opacity="1"/>
<stop offset="0.96875" stop-color="rgb(1.593018%, 16.012573%, 16.067505%)" stop-opacity="1"/>
<stop offset="0.984375" stop-color="rgb(1.454163%, 15.710449%, 15.760803%)" stop-opacity="1"/>
<stop offset="1" stop-color="rgb(1.315308%, 15.409851%, 15.455627%)" stop-opacity="1"/>
</linearGradient>
</defs>
<g clip-path="url(#clip-0)">
<g clip-path="url(#clip-1)">
<path fill-rule="nonzero" fill="url(#linear-pattern-0)" d="M 0 0 L 0 3303.03125 L 2182.808594 3303.03125 L 2182.808594 0 Z M 0 0 "/>
</g>
</g>
</svg>
